<?xml version="1.0" encoding="UTF-8" standalone="no"?>
<!-- Created with Inkscape (http://www.inkscape.org/) -->

<svg
   xmlns:dc="http://purl.org/dc/elements/1.1/"
   xmlns:cc="http://creativecommons.org/ns#"
   xmlns:rdf="http://www.w3.org/1999/02/22-rdf-syntax-ns#"
   xmlns:svg="http://www.w3.org/2000/svg"
   xmlns="http://www.w3.org/2000/svg"
   xmlns:sodipodi="http://sodipodi.sourceforge.net/DTD/sodipodi-0.dtd"
   xmlns:inkscape="http://www.inkscape.org/namespaces/inkscape"
   width="744.09448819"
   height="1052.3622047"
   id="svg2"
   inkscape:label="Pozadí"
   version="1.1"
   inkscape:version="0.48.4 r9939"
   sodipodi:docname="Nový dokument 1">
  <defs
     id="defs3">
    <clipPath
       clipPathUnits="userSpaceOnUse"
       id="clipPath3450-2">
      <rect
         style="fill:#ff0000;fill-opacity:1;stroke:none"
         id="rect3452-0"
         width="370.71429"
         height="177.85715"
         x="135"
         y="451.64789"
         rx="5.9187484"
         ry="4.9907398" />
    </clipPath>
    <clipPath
       clipPathUnits="userSpaceOnUse"
       id="clipPath3450-2-2">
      <rect
         style="fill:#ff0000;fill-opacity:1;stroke:none"
         id="rect3452-0-8"
         width="370.71429"
         height="177.85715"
         x="135"
         y="451.64789"
         rx="5.9187484"
         ry="4.9907398" />
    </clipPath>
    <filter
       id="filter4728"
       y="-0.5"
       x="-0.5"
       width="2"
       height="2"
       inkscape:label="Plaster"
       inkscape:menu="Bumps"
       inkscape:menu-tooltip="Combine a HSL edges detection bump with a matte and crumpled surface effect"
       color-interpolation-filters="sRGB">
      <feGaussianBlur
         id="feGaussianBlur4730"
         stdDeviation="2"
         result="result14" />
      <feFlood
         id="feFlood4732"
         flood-opacity="0.75"
         result="result15"
         flood-color="rgb(255,255,255)"
         in="result14" />
      <feTurbulence
         id="feTurbulence4734"
         result="result5"
         numOctaves="5"
         baseFrequency="0.004 0.004"
         seed="25"
         type="fractalNoise" />
      <feDisplacementMap
         id="feDisplacementMap4736"
         in2="result14"
         yChannelSelector="G"
         result="result8"
         in="result5"
         xChannelSelector="R"
         scale="200" />
      <feDiffuseLighting
         id="feDiffuseLighting4738"
         in="result8"
         surfaceScale="50"
         lighting-color="#ffffff"
         diffuseConstant="1"
         result="result16">
        <feDistantLight
           id="feDistantLight4740"
           azimuth="225"
           elevation="10" />
      </feDiffuseLighting>
      <feBlend
         id="feBlend4742"
         in2="SourceGraphic"
         mode="screen"
         result="result9" />
      <feComposite
         id="feComposite4744"
         in2="SourceGraphic"
         operator="in"
         result="result11"
         in="result9" />
    </filter>
    <clipPath
       clipPathUnits="userSpaceOnUse"
       id="clipPath3450-4">
      <rect
         style="fill:#ff0000;fill-opacity:1;stroke:none"
         id="rect3452-03"
         width="370.71429"
         height="177.85715"
         x="135"
         y="451.64789"
         rx="5.9187484"
         ry="4.9907398" />
    </clipPath>
    <filter
       id="filter3516"
       y="-0.5"
       x="-0.5"
       width="2"
       height="2"
       inkscape:label="Plaster"
       inkscape:menu="Bumps"
       inkscape:menu-tooltip="Combine a HSL edges detection bump with a matte and crumpled surface effect"
       color-interpolation-filters="sRGB">
      <feGaussianBlur
         id="feGaussianBlur3518"
         stdDeviation="2"
         result="result14" />
      <feFlood
         id="feFlood3520"
         flood-opacity="0.75"
         result="result15"
         flood-color="rgb(255,255,255)"
         in="result14" />
      <feTurbulence
         id="feTurbulence3522"
         result="result5"
         numOctaves="5"
         baseFrequency="0.004 0.004"
         seed="25"
         type="fractalNoise" />
      <feDisplacementMap
         id="feDisplacementMap3524"
         in2="result14"
         yChannelSelector="G"
         result="result8"
         in="result5"
         xChannelSelector="R"
         scale="200" />
      <feDiffuseLighting
         id="feDiffuseLighting3526"
         in="result8"
         surfaceScale="50"
         lighting-color="rgb(255,255,255)"
         diffuseConstant="1"
         result="result16">
        <feDistantLight
           id="feDistantLight3528"
           azimuth="225"
           elevation="10" />
      </feDiffuseLighting>
      <feBlend
         id="feBlend3530"
         in2="SourceGraphic"
         mode="screen"
         result="result9" />
      <feComposite
         id="feComposite3532"
         in2="SourceGraphic"
         operator="in"
         result="result11"
         in="result9" />
    </filter>
  </defs>
  <sodipodi:namedview
     id="base"
     pagecolor="#ffffff"
     bordercolor="#666666"
     borderopacity="1.0"
     inkscape:pageopacity="0.0"
     inkscape:pageshadow="2"
     inkscape:zoom="1.979899"
     inkscape:cx="200.97092"
     inkscape:cy="543.03358"
     inkscape:document-units="px"
     inkscape:current-layer="layer1"
     showgrid="false"
     inkscape:window-width="1440"
     inkscape:window-height="851"
     inkscape:window-x="0"
     inkscape:window-y="25"
     inkscape:window-maximized="1" />
  <metadata
     id="metadata6">
    <rdf:RDF>
      <cc:Work
         rdf:about="">
        <dc:format>image/svg+xml</dc:format>
        <dc:type
           rdf:resource="http://purl.org/dc/dcmitype/StillImage" />
        <dc:title></dc:title>
      </cc:Work>
    </rdf:RDF>
  </metadata>
  <g
     inkscape:label="Vrstva 1"
     inkscape:groupmode="layer"
     id="layer1">
    <path
       transform="matrix(0.71728853,0.02579823,-0.02274545,0.70788291,-17.825935,142.69036)"
       style="fill:#ffff00;fill-opacity:1;filter:url(#filter3516)"
       d="m 258.02054,790.22284 c -7.63881,-1.1578 -20.554,-6.94292 -23.54457,-10.54635 -0.68016,-0.81954 0.73912,-0.35181 3.15396,1.0394 13.1074,7.55131 31.84846,8.58809 44.01482,2.43495 7.59907,-3.84322 11.33185,-11.9787 8.89041,-19.37634 -1.44443,-4.37666 -8.64031,-10.81597 -13.82146,-12.36828 -8.36268,-2.50552 -18.77536,-0.69373 -21.11267,3.67358 -5.06112,9.4568 9.34186,20.12032 19.84207,14.69045 5.73718,-2.96681 4.0641,-9.75271 -3.01622,-12.23361 -1.87349,-0.65645 -2.59649,-1.21895 -1.60668,-1.25 2.61653,-0.0821 7.47726,2.65821 8.6707,4.88817 3.55427,6.64123 -1.42582,12.05539 -11.08889,12.05539 -9.99652,0 -17.94771,-6.35319 -18.17937,-14.52575 -0.1272,-4.48741 2.73213,-8.35445 8.35644,-11.3015 3.91855,-2.05326 5.46161,-2.27465 13.10636,-1.8804 10.41405,0.53705 15.85596,2.83688 21.69065,9.16677 6.82465,7.40387 7.8665,16.82919 2.7199,24.60622 -6.20985,9.38374 -20.74244,13.55445 -38.07545,10.9273 z m -34.5,-13.04606 c -8.5136,-6.49494 -19.13365,-16.92131 -18.41691,-18.08103 0.31106,-0.5033 -0.0304,-0.79145 -0.75876,-0.64033 -0.73245,0.15198 -1.26306,-0.50253 -1.18723,-1.46446 0.0754,-0.95658 -0.22696,-1.51424 -0.6719,-1.23925 -1.08183,0.6686 -6.04035,-6.79772 -9.93746,-14.96339 -1.73675,-3.63904 -4.29055,-10.99081 -5.6751,-16.33727 -4.36166,-16.84258 -2.33227,-33.35662 5.74838,-46.7771 7.53869,-12.5204 22.49622,-22.80339 37.89898,-26.05476 8.43146,-1.7798 25.69477,-1.36295 35.11716,0.84796 l 5.38284,1.26305 -9.5,0.57611 -9.5,0.57611 11.5,0.0819 c 9.15266,0.0652 12.57125,0.50577 16.74822,2.1586 7.54332,2.98488 17.04729,7.88232 22.25178,11.46645 14.1602,9.75156 28.93174,24.32425 27.31227,26.94461 -0.34171,0.55289 -0.14755,0.71247 0.43146,0.35462 1.59423,-0.98528 7.11134,8.33539 10.10853,17.07749 1.46405,4.27027 3.85085,9.78913 5.30401,12.26413 11.63819,19.822 39.44228,34.47103 67.84373,35.74456 12.13285,0.54404 19.52968,-0.59884 28.27647,-4.36899 3.45003,-1.48707 8.84671,-2.87961 12.10976,-3.12474 l 5.88623,-0.44221 -2.3329,3.27625 c -1.28309,1.80194 -1.82549,2.96266 -1.20533,2.57938 0.62017,-0.38328 1.39313,-0.26719 1.7177,0.25798 0.32458,0.52517 -0.20683,1.46347 -1.1809,2.08511 -1.5167,0.96795 -1.41202,1.04299 0.72897,0.52254 5.08093,-1.23512 9,-1.77617 9,-1.24251 0,2.07432 -1.56565,3.71263 -3.54797,3.71263 -3.38808,0 -3.98341,1.8067 -0.71898,2.18194 l 2.76695,0.31804 -4.19228,2.84469 c -2.30576,1.56458 -4.62982,2.57427 -5.16459,2.24377 -0.53477,-0.33051 -1.16074,-0.0356 -1.39105,0.65531 -0.31385,0.94155 -4.53107,1.25054 -16.83541,1.23352 -19.50942,-0.027 -26.09171,-1.23094 -49.5948,-9.07125 -20.3365,-6.78399 -28.49666,-8.10047 -40.17574,-6.48158 -10.4744,1.45191 -24.05053,5.85693 -33.80682,10.96924 l -7.22473,3.78577 5.49387,-6.58974 c 12.8777,-15.44641 18.08556,-33.64679 13.78003,-48.15823 -1.78297,-6.00932 -5.805,-14.509 -8.10044,-17.11849 -0.83667,-0.95113 -1.1532,-2.25971 -0.72568,-3 0.41706,-0.72215 0.39999,-0.98936 -0.0379,-0.59379 -0.43791,0.39558 -4.95032,-3.20442 -10.02757,-8 -27.39278,-25.87304 -59.46466,-31.98687 -86.99689,-16.5841 -22.6931,12.69554 -29.84164,44.60265 -16.69631,74.52309 1.1256,2.56202 1.96774,4.81202 1.87143,5 -0.0963,0.18799 -0.006,0.24746 0.20118,0.13216 0.20696,-0.1153 2.17836,2.5847 4.38089,6 2.20253,3.4153 7.85213,10.14713 12.55467,14.95963 4.70254,4.8125 8.35614,8.72871 8.11911,8.70268 -0.23703,-0.026 -3.35597,-2.27877 -6.93097,-5.0061 z m 24.73097,-122.63957 c -0.97297,-0.25354 -2.32297,-0.23687 -3,0.0371 -0.67703,0.27393 0.11903,0.48137 1.76903,0.46099 1.65,-0.0204 2.20394,-0.2445 1.23097,-0.49804 z m -4.48097,-2.96929 c -0.6875,-0.27741 -1.8125,-0.27741 -2.5,0 -0.6875,0.27741 -0.125,0.50439 1.25,0.50439 1.375,0 1.9375,-0.22698 1.25,-0.50439 z m 214.30229,106.74689 c -0.33881,-0.54821 0.56172,-1.76843 2.00119,-2.71161 2.21562,-1.45173 2.75116,-1.49811 3.49022,-0.30229 0.48016,0.77692 0.55426,1.70326 0.16466,2.05854 -1.43637,1.30985 -5.05883,1.92171 -5.65607,0.95536 z m -57.55229,-2.58735 c -21.34294,-4.31723 -43.02357,-17.54356 -51.42325,-31.37091 -5.03887,-8.29489 -6.90494,-16.14141 -5.49992,-23.12635 0.60848,-3.025 1.78378,-6.625 2.61179,-8 2.53793,-4.21452 10.23137,-10.76937 14.88693,-12.68374 2.95742,-1.2161 4.41819,-2.42347 4.4207,-3.65386 0.007,-3.24149 6.33062,-20.6624 7.50071,-20.6624 1.64825,0 6.66056,5.50914 5.79752,6.37219 -0.40343,0.40343 -0.0263,0.46213 0.83808,0.13044 1.56088,-0.59897 5.59866,4.042 5.06505,5.8217 -0.13594,0.45338 0.17778,0.5617 0.69715,0.24071 0.51938,-0.32099 2.26651,1.02043 3.88253,2.98094 2.62777,3.18794 3.66645,3.66475 9.83046,4.51273 3.79074,0.52149 10.73179,2.1125 15.42457,3.53558 l 8.53232,2.58741 8.41008,-4.1098 c 4.62555,-2.26039 10.07775,-4.37647 12.116,-4.7024 l 3.7059,-0.5926 0.72438,9.66181 c 0.39841,5.31399 0.47976,11.16918 0.18079,13.01154 -0.43477,2.67913 -0.0551,3.80866 1.89647,5.64206 9.48286,8.90869 14.10614,25.31285 9.92772,35.22519 -3.8522,9.13843 -15.53262,17.28834 -28.1098,19.61336 -7.66883,1.41766 -23.33292,1.20147 -31.41618,-0.4336 z m 26.1816,-3.77844 c -1.43395,-1.72781 -9.6059,-4.59026 -15.98227,-5.59823 -7.17429,-1.1341 -6.55929,0.19836 0.79241,1.71683 3.29546,0.68067 7.90796,2.08891 10.25,3.12944 5.11425,2.27217 6.35875,2.46161 4.93986,0.75196 z m 3.8184,-7.43874 c -5.01948,-1.6979 -24.00054,-3.00004 -23.99904,-1.64639 5.3e-4,0.47647 3.71303,0.97888 8.25,1.11646 4.53697,0.13757 9.59904,0.6614 11.24904,1.16404 1.65,0.50265 4.35,0.90809 6,0.90099 2.68743,-0.0116 2.53115,-0.17151 -1.5,-1.5351 z m -3,-4.16345 c 0,-1.36261 -3.85227,-2.08799 -11.16821,-2.10298 -11.04341,-0.0226 -11.27994,1.4336 -0.33179,2.04268 5.5,0.30599 10.3375,0.64349 10.75,0.75 0.4125,0.10652 0.75,-0.20385 0.75,-0.6897 z m -41.55,-0.99314 c -3.09718,-2.85757 -23.65286,-7.87877 -22.12347,-5.40416 0.34572,0.55938 2.91936,1.32094 5.71921,1.69235 2.79984,0.37141 7.19744,1.53119 9.77244,2.57728 5.03892,2.04705 8.20856,2.5893 6.63182,1.13453 z m -0.44473,-3.61714 c -2.69602,-3.24851 -20.07876,-11.50635 -24.22084,-11.50635 -1.8649,0 0.30532,1.80524 2.95612,2.45896 4.84147,1.19398 14.23922,5.76475 13.68764,6.65723 -0.29264,0.4735 0.0538,0.6415 0.76987,0.37335 0.71607,-0.26816 2.65194,0.40903 4.30194,1.50486 3.59374,2.38675 4.15669,2.50179 2.50527,0.51195 z m -0.081,-4.10136 c -1.33337,-1.42726 -3.67652,-3.24643 -5.20701,-4.04259 -1.5983,-0.83145 -2.4902,-1.92084 -2.09549,-2.5595 0.39146,-0.63339 0.23618,-0.83317 -0.36082,-0.4642 -0.57642,0.35625 -2.96614,-0.029 -5.3105,-0.85617 -6.67226,-2.35411 -5.65847,-1.13658 2.34878,2.82081 4.02534,1.98944 8.14948,4.53504 9.16475,5.65691 1.01528,1.12186 2.30465,2.03975 2.86528,2.03975 0.56063,0 -0.0716,-1.16776 -1.40499,-2.59501 z m 16.49479,-2.05475 c 0.74613,-1.94439 -0.88396,-3.82518 -4.1691,-4.8103 -1.80884,-0.54242 -2.25,-0.28212 -2.25,1.32757 0,1.10126 0.44575,3.17469 0.99055,4.60763 0.82251,2.16337 1.31148,2.43359 2.88235,1.59288 1.04049,-0.55685 2.18628,-1.77985 2.5462,-2.71778 z m 50.84447,1.39976 c 1.23004,-0.6875 2.39331,-1.33188 2.58505,-1.43195 0.98859,-0.51598 -7.67333,-11.86738 -11.64839,-15.26515 -8.96466,-7.66276 -20.74503,-11.63888 -28.62432,-9.66131 -3.67003,0.92112 -7.0678,5.06925 -9.13588,11.15343 -0.9985,2.93754 -2.06848,5.18461 -2.37774,4.99348 -0.85104,-0.52597 -0.67374,5.18338 0.18771,6.04483 0.4125,0.4125 0.75,-0.16231 0.75,-1.27735 0,-2.40095 6.76477,-13.00174 8.79376,-13.78033 0.7756,-0.29763 3.50179,1.1803 6.05821,3.28427 8.02927,6.60823 16.01465,10.56756 27.64803,13.70849 3.55138,0.95885 4.21752,1.36903 2.29922,1.41578 -8.97298,0.21865 -23.25177,-5.52695 -30.14164,-12.12861 -2.56163,-2.45451 -4.65754,-3.89144 -4.65754,-3.19318 0,0.69826 0.48068,1.56664 1.06817,1.92973 0.5875,0.3631 0.82869,1.28426 0.53599,2.04702 -0.2927,0.76277 -0.21088,1.30744 0.18183,1.21038 0.3927,-0.0971 2.62915,1.69283 4.96988,3.97753 2.98081,2.90946 6.12662,4.74671 10.5,6.13231 7.13495,2.26053 17.71017,2.6837 21.0077,0.84063 z m -56.12538,-17.44456 c 0.0585,-6.21267 -0.38212,-9.87137 -1.43184,-11.88981 -4.84493,-9.316 -19.12905,-14.29693 -32.7256,-11.41155 -6.68891,1.41949 -16.74238,7.11034 -13.71851,7.76548 0.96924,0.20999 1.5296,0.75824 1.24525,1.21833 -0.76679,1.24069 6.53232,6.68317 12.82944,9.56608 10.36854,4.74688 21.16973,4.0339 26.29061,-1.73542 1.85103,-2.08543 1.84724,-2.09634 -0.33144,-0.95354 -3.99112,2.09347 -13.36313,2.4335 -20.55503,0.74576 -5.95945,-1.39852 -16.74103,-5.94011 -16.74103,-7.05193 0,-0.22411 2.53804,0.48458 5.64009,1.57486 8.75798,3.07819 20.2102,4.4372 27.38809,3.2501 6.09869,-1.00862 6.11667,-1.00437 7.55929,1.78535 0.79534,1.53801 1.69257,4.94164 1.99385,7.56362 1.40872,12.25966 2.43907,12.08745 2.55687,-0.42733 z M 432.6459,568.42525 c 4.49412,-23.32612 -0.48129,-57.99863 -13.56719,-77.63285 -17.79379,-25.4534 -26.96634,-31.97718 -66.19717,7.01117 -13.32439,14.66853 -55.40265,86.40936 -19.08031,91.96845 23.01411,3.22314 45.93313,11.99438 6.42527,11.82286 -13.59743,-1.44241 -21.19458,-2.53304 -32.20596,-4.85431 -14.07715,-2.96755 -23.55602,-1.69192 -47.46114,6.38712 -20.33852,6.87367 -28.66971,8.41493 -46.03886,8.51717 -15.99102,0.0941 -22.7314,-1.37095 -26.94565,-5.8568 -2.08781,-2.22238 -2.26966,-2.56385 -0.45382,-2.44109 1.53642,0.10388 1.47708,-0.90654 -0.35053,-1.00077 -1.7024,-0.0878 -2.25,-0.72444 -2.25,-2.616 0,-2.77571 2.52709,-3.35865 6.15139,-1.41898 1.11095,0.59456 2.26207,0.83885 2.55806,0.54286 0.29599,-0.29599 -1.20505,-1.3316 -3.33564,-2.30136 -5.13686,-2.3381 -4.98477,-2.14013 -3.09541,-4.02949 1.54579,-1.5458 1.79834,-1.53356 3.69047,0.1788 2.14079,1.93739 2.89153,0.78857 0.83113,-1.27183 -2.38148,-2.38148 8.56479,-1.40268 14.3507,1.28322 23.58395,10.94799 61.13347,4.81394 84.31186,-13.77309 9.71677,-7.792 18.22043,-19.99339 20.00929,-28.71013 6.52502,-25.78305 15.44507,-45.18362 31.79849,-64.41019 18.93189,-22.19832 40.11395,-31.39188 48.0553,-31.75061 2.08395,-0.0941 9.20827,0.47393 13.09819,2.38486 8.99572,4.41918 17.51426,14.31975 26.64268,27.66523 16.57178,26.69035 21.25692,60.31965 14.67441,87.30953 -2.01394,7.76936 -3.74101,32.20832 -39.32315,35.1145 -4.52672,1.21643 -36.93061,1.29753 -33.10565,-5.68721 1.88898,-3.44946 17.09681,-2.44256 24.56392,-1.84887 20.00491,0.32685 32.77729,-11.56176 36.24932,-30.58219 z m -214.75083,25.37186 c -12.67834,-2.8781 -22.87468,-9.8129 -26.94206,-18.324 -2.37061,-4.96056 -2.9849,-13.19822 -1.405,-18.84107 1.30726,-4.66908 6.95737,-14.07656 10.93724,-18.21061 1.63452,-1.69783 2.05205,-2.98836 1.57796,-4.87727 -0.78012,-3.10825 -1.381,-18.6839 2.88484,-20.77012 3.82729,-1.87175 6.1351,1.40631 16.67725,4.80345 l 5.85199,1.88576 9.5319,-2.7042 c 5.24254,-1.4873 11.99154,-3.03797 14.99776,-3.44592 5.2843,-0.7171 5.78135,-1.06605 14.96273,-10.50469 5.22328,-5.36962 7.26596,-8.35748 10.50125,-7.70688 3.84222,0.48268 5.47658,8.20894 7.11943,15.55 1.11733,4.99273 1.46909,5.42627 6.34167,7.81601 7.47295,3.66507 11.12696,7.11987 14.22265,13.44723 10.78217,22.03797 -12.78109,50.70097 -49.63464,60.37693 -10.68567,2.80554 -28.71924,3.52707 -37.62497,1.50538 z m 9.43764,-7.07466 c 2.54594,-0.13033 6.93783,-0.3798 9.68783,-1.12803 4.90404,-1.33432 4.92208,-1.35319 0.93983,-0.98296 -2.2331,0.2076 -11.90037,2.22835 -17.5957,-0.53074 -4.68953,-2.27183 1.94086,2.89908 6.96804,2.64173 z m 8.6045,-5.48128 c 3.25416,-0.006 5.65226,-0.27542 5.32909,-0.59858 -0.95052,-0.95052 -17.95271,0.40378 -22.34609,-0.37685 -2.92058,-0.51895 3.34211,1.93572 7.10033,1.47587 2.2,-0.26919 6.6625,-0.49439 9.91667,-0.50044 z m 5.35416,-4.57351 c -0.30937,-0.30938 -3.58125,-0.5625 -7.27083,-0.5625 -3.68958,0 -10.69827,-0.72212 -11.00764,-0.41274 -0.30938,0.30938 6.69931,1.53774 11.00764,1.53774 4.30833,0 7.58021,-0.25312 7.27083,-0.5625 z m 35.72917,-3.16434 c 5.75971,-3.03239 11.47972,-9.54677 9.69071,-8.20892 -5.04726,3.77445 -14.04432,9.42524 -19.83346,11.16673 -0.4396,0.7113 -0.18846,0.77979 0.73824,0.20133 0.77248,-0.48219 5.34588,-1.02234 9.40451,-3.15914 z m 0.57933,-6.30215 c 4.63137,-2.23707 11.72906,-9.78597 10.62115,-8.88555 -4.43788,3.60678 -17.08293,10.5143 -19.24761,12.51885 -1.12592,1.04263 -1.54022,1.56683 -0.92067,1.16489 0.61956,-0.40194 4.91576,-2.56113 9.54713,-4.79819 z m -3.01813,-3.01546 c 2.99134,-1.69191 5.09187,-5.63671 4.04725,-4.64888 -2.31454,2.18871 -10.27479,6.95496 -12.1059,9.30732 -1.41334,1.81569 -1.39187,1.82135 0.57588,0.15189 1.12418,-0.95377 4.49142,-3.11842 7.48277,-4.81033 z m -56.99713,3.43278 c 6.53083,-1.93945 11.63967,-5.44864 15.25534,-10.47869 3.89795,-5.42276 3.29889,-5.73429 -1.86813,-0.9715 -5.84017,5.38329 -14.81415,9.60502 -23.54868,11.07829 -17.12446,2.94674 4.0362,3.45957 10.16147,0.3719 z m 36.74929,-2.14652 c 0.33209,-3.43563 -0.5961,-3.96363 -3.8791,-2.20663 -2.21614,1.18605 -2.485,3.01408 -0.70507,4.79401 2.09471,2.09471 4.24913,0.87872 4.58417,-2.58738 z m -43.49619,-1.93392 c 8.39229,-3.01537 17.21809,-8.12289 21.11992,-12.22217 1.6154,-1.69715 3.48128,-3.08572 4.14641,-3.08572 1.67972,0 6.73954,5.95145 8.33544,9.80429 5.18359,8.76644 -1.598,-8.19 -2.43418,-9.83376 -2.34802,-4.54057 -5.23953,-5.97053 -12.07291,-5.97053 -5.03091,0 -7.42009,0.63883 -13.19614,3.52848 -7.20149,3.60275 -15.2337,7.29277 -19.171,14.16692 -2.63867,3.97111 -1.2754,7.35939 3.44187,6.56368 2.40376,-0.40127 6.08115,-1.604 9.83059,-2.95119 z m 47.6681,-20.42956 c 1.11591,-2.40033 1.52682,-2.5501 4.86678,-1.77386 8.95788,2.08189 23.46497,0.31792 34.58061,-4.52931 3.45908,-1.6778 2.08281,-4.99257 -1.59786,-7.40425 -12.41146,-8.13229 -27.83983,-3.63647 -37.09779,5.62149 -4.29916,4.29916 -5.98093,10.96446 -4.97257,19.7076 0.4967,7.76481 0.92597,2.98363 1.78933,-2 0.66697,-3.85 1.76115,-8.17975 2.4315,-9.62167 z m 30.55914,2.09913 c 9.2666,-4.13828 12.10687,-8.14639 3.56196,-4.10529 -12.34416,5.02543 -19.13163,6.6214 -24.68822,4.49053 -3.7693,-1.44547 -7.96766,-1.38539 -2.20974,1.57604 6.1343,3.12875 14.53062,1.97103 23.336,-1.96128 z"
       id="path3438-6"
       inkscape:connector-curvature="0"
       clip-path="url(#clipPath3450-2-2)"
       inkscape:export-filename="/home/market/work/mapsandwebs/files/img/heslo_kocka.png"
       inkscape:export-xdpi="109.35"
       inkscape:export-ydpi="109.35"
       sodipodi:nodetypes="sssssssssssssssssssscssssssscccsssssssssscsscssssscscssssscssscssssccsscscccccsssssssssssssscsssssssscsscssssssssssssssscsssscsssssssssscsssssscssssssssssccsssssssssssssscsscccssssssssssssscccccccssssscsssssssssccsscccsccssssssscssscssssssssssccssccscscsscsssssssssssscssccsssssssccssccsssccsccsscscs" />
    <g
       id="g4056-8-6"
       transform="matrix(0.20655551,0,0,0.20655551,-278.50331,316.07652)"
       style="fill:#ffff00;fill-opacity:1;filter:url(#filter4728)"
       inkscape:export-filename="/home/market/work/mapsandwebs/files/img/heslo_kocka.png"
       inkscape:export-xdpi="109.35"
       inkscape:export-ydpi="109.35">
      <path
         inkscape:connector-curvature="0"
         id="path3731-1-5"
         d="m 2258.6407,824.65076 c -2.1808,-2.18074 -1.7181,-6.65936 1.2519,-12.11926 1.4756,-2.71253 3.0428,-5.20555 3.4826,-5.54003 0.4399,-0.33448 1.1688,-2.07834 1.6198,-3.87526 0.4511,-1.79691 1.2506,-3.26713 1.7767,-3.26713 0.5262,0 2.1812,-2.54873 3.6777,-5.66384 3.205,-6.67144 10.6478,-17.66521 20.383,-30.10779 3.8484,-4.9186 8.1866,-10.49135 9.6406,-12.38391 1.454,-1.89254 4.1072,-5.16892 5.8956,-7.28083 1.7885,-2.11191 2.9064,-4.18534 2.4842,-4.60762 -0.4224,-0.42228 -0.2201,-0.76779 0.4492,-0.76779 1.651,0 7.5272,-5.54068 7.5272,-7.09739 0,-0.68713 0.4458,-1.24933 0.9908,-1.24933 0.545,0 1.7524,-1.46807 2.6829,-3.26238 1.5962,-3.07785 3.6886,-6.00169 6.5067,-9.09265 0.6808,-0.74659 2.1707,-3.34679 3.311,-5.77824 1.1404,-2.43144 2.6287,-4.764 3.3074,-5.18348 1.1176,-0.6907 3.3997,-5.27162 4.1258,-8.28154 0.1582,-0.65581 0.4781,-1.99724 0.7111,-2.98096 0.2328,-0.98372 0.8646,-2.11252 1.4039,-2.50844 2.0751,-1.52338 3.1889,-10.4163 2.4759,-19.76709 -0.6148,-8.06272 -1.2189,-10.20171 -3.4815,-12.32734 -2.7271,-2.56192 -2.7713,-2.56377 -11.3516,-0.4783 -6.493,1.5781 -9.9697,3.24158 -14.1196,6.75576 -12.177,10.31124 -16.7096,15.31783 -19.7069,21.76727 -4.0619,8.73977 -7.4029,10.47271 -13.8068,7.16114 -6.4419,-3.33125 -9.1631,-10.49875 -5.6256,-14.81777 2.7376,-3.34252 4.2024,-10.00971 4.343,-19.76829 0.1306,-9.10148 -0.03,-9.71689 -3.5304,-13.41437 -2.0173,-2.13139 -4.6699,-3.87525 -5.8945,-3.87525 -3.32,0 -6.0745,1.29812 -5.3257,2.5097 0.3629,0.58709 0.092,1.06746 -0.6031,1.06746 -0.6944,0 -1.2627,0.74744 -1.2627,1.661 0,0.91356 -0.7219,1.93804 -1.6043,2.27665 -1.5929,0.61123 -6.4886,14.74505 -6.6901,19.31392 -0.6526,14.79726 1.6824,51.14771 3.4465,53.65745 0.461,0.65581 0.9395,2.80211 1.0633,4.76955 0.1236,1.96745 0.6941,5.1869 1.2674,7.15434 0.5732,1.96743 1.1224,5.72346 1.2205,8.34672 0.097,2.62325 0.4373,5.61853 0.7542,6.65616 0.9892,3.23876 -3.5728,6.25205 -8.1621,5.3911 -5.2204,-0.97938 -8.6858,-4.88659 -9.6271,-10.85489 -0.4136,-2.62324 -1.2804,-7.98899 -1.9262,-11.92387 -0.6458,-3.93489 -1.4915,-11.71521 -1.8793,-17.28963 -0.3879,-5.57442 -0.9328,-10.85357 -1.211,-11.73143 -0.2781,-0.87789 -0.8169,-7.58507 -1.1972,-14.90486 -0.6855,-13.19428 1.5443,-34.82132 4.1028,-39.7945 0.6032,-1.17234 2.4988,-5.08268 4.2126,-8.68966 6.2952,-13.2489 13.3337,-17.59893 26.1334,-16.15083 6.5856,0.74509 7.764,1.33698 13.0235,6.54156 5.5404,5.48246 10.7828,15.63264 10.6595,20.63886 -0.029,1.14768 0.7202,2.08668 1.6631,2.08668 0.943,0 1.7145,-0.56824 1.7145,-1.26276 0,-0.69451 0.4907,-0.95945 1.0905,-0.58876 0.5998,0.37069 1.2706,0.26823 1.4906,-0.22772 0.5557,-1.25321 6.8353,-5.38152 11.1314,-7.31801 1.9675,-0.88687 4.4035,-2.02059 5.4133,-2.5194 4.1111,-2.03055 14.3802,-2.58187 20.2188,-1.08549 3.2814,0.841 5.9662,1.96424 5.9662,2.49607 0,0.53183 1.0732,0.96696 2.3848,0.96696 1.3115,0 2.3894,0.40244 2.3951,0.89431 0.014,0.49185 1.9175,2.90644 4.2483,5.36573 2.3311,2.45931 3.5337,4.47967 2.6726,4.48972 -1.1694,0.0139 -1.2051,0.24739 -0.1412,0.92385 1.3439,0.85432 5.3255,21.49758 4.4404,23.0207 -0.2275,0.39119 -0.7182,4.07299 -1.0907,8.18178 -0.3725,4.10878 -1.4784,9.0203 -2.4581,10.91452 -0.9795,1.89423 -1.4645,3.44402 -1.0779,3.44402 0.7371,0 -4.2776,9.69835 -5.5487,10.7315 -0.4035,0.32791 -1.1158,1.82078 -1.5831,3.3175 -0.4671,1.49671 -2.1492,4.12379 -3.7378,5.83796 -1.5886,1.71416 -2.8885,4.11146 -2.8885,5.3273 0,1.21588 -0.5005,2.21067 -1.112,2.21067 -0.6116,0 -1.4209,0.97311 -1.7984,2.16246 -0.3775,1.18934 -2.5567,4.27465 -4.8426,6.85623 -6.1964,6.99757 -6.5557,7.4755 -6.5557,8.71955 0,0.63002 -1.878,2.30613 -4.1733,3.72474 -2.2954,1.41861 -4.1734,3.21173 -4.1734,3.98471 0,0.77297 -1.3414,2.85209 -2.9809,4.62025 -1.6396,1.76817 -2.981,3.66895 -2.981,4.22396 0,0.55502 -2.2321,3.26347 -4.9601,6.0188 -2.7281,2.75532 -5.5452,5.99964 -6.26,7.20961 -1.2724,2.15321 -14.4516,19.72662 -17.2304,22.97534 -5.4904,6.41879 -7.3184,8.98829 -7.3198,10.28864 -7e-4,0.81977 -0.5728,1.49048 -1.2715,1.49048 -0.6985,0 -4.1744,2.95117 -7.7241,6.55814 -6.8705,6.98104 -7.6077,7.36501 -9.8454,5.12727 z"
         style="fill:#ffff00;fill-opacity:1" />
      <text
         sodipodi:linespacing="125%"
         id="text3253-0-3-3"
         y="764.13855"
         x="1569.6176"
         style="font-size:75.56614685px;font-style:normal;font-variant:normal;font-weight:normal;font-stretch:normal;line-height:125%;letter-spacing:0px;word-spacing:0px;fill:#ffff00;fill-opacity:1;stroke:none;font-family:Abyssinica SIL;-inkscape-font-specification:Abyssinica SIL"
         xml:space="preserve"><tspan
           id="tspan3823-1-0"
           style="font-size:226.69844055px;font-style:normal;font-variant:normal;font-weight:normal;font-stretch:normal;fill:#ffff00;fill-opacity:1;font-family:Ubuntu-Title;-inkscape-font-specification:Ubuntu-Title"
           y="764.13855"
           x="1569.6176"
           sodipodi:role="line">srdcem</tspan></text>
      <text
         sodipodi:linespacing="125%"
         id="text3253-0-7-5-4"
         y="585.07336"
         x="1460.589"
         style="font-size:58.62957001px;font-style:normal;font-variant:normal;font-weight:normal;font-stretch:normal;line-height:125%;letter-spacing:0px;word-spacing:0px;fill:#ffff00;fill-opacity:1;stroke:none;font-family:Abyssinica SIL;-inkscape-font-specification:Abyssinica SIL"
         xml:space="preserve"><tspan
           id="tspan3823-7-4-8"
           style="font-size:175.88870239px;font-style:normal;font-variant:normal;font-weight:normal;font-stretch:normal;fill:#ffff00;fill-opacity:1;font-family:Ubuntu-Title;-inkscape-font-specification:Ubuntu-Title"
           y="585.07336"
           x="1460.589"
           sodipodi:role="line">mapy a weby</tspan></text>
    </g>
    <path
       transform="translate(-48.233669,-280.85892)"
       style="fill:#000000"
       d="m 258.02054,790.22284 c -7.63881,-1.1578 -20.554,-6.94292 -23.54457,-10.54635 -0.68016,-0.81954 0.73912,-0.35181 3.15396,1.0394 13.1074,7.55131 31.84846,8.58809 44.01482,2.43495 7.59907,-3.84322 11.33185,-11.9787 8.89041,-19.37634 -1.44443,-4.37666 -8.64031,-10.81597 -13.82146,-12.36828 -8.36268,-2.50552 -18.77536,-0.69373 -21.11267,3.67358 -5.06112,9.4568 9.34186,20.12032 19.84207,14.69045 5.73718,-2.96681 4.0641,-9.75271 -3.01622,-12.23361 -1.87349,-0.65645 -2.59649,-1.21895 -1.60668,-1.25 2.61653,-0.0821 7.47726,2.65821 8.6707,4.88817 3.55427,6.64123 -1.42582,12.05539 -11.08889,12.05539 -9.99652,0 -17.94771,-6.35319 -18.17937,-14.52575 -0.1272,-4.48741 2.73213,-8.35445 8.35644,-11.3015 3.91855,-2.05326 5.46161,-2.27465 13.10636,-1.8804 10.41405,0.53705 15.85596,2.83688 21.69065,9.16677 6.82465,7.40387 7.8665,16.82919 2.7199,24.60622 -6.20985,9.38374 -20.74244,13.55445 -38.07545,10.9273 z m -34.5,-13.04606 c -8.5136,-6.49494 -19.13365,-16.92131 -18.41691,-18.08103 0.31106,-0.5033 -0.0304,-0.79145 -0.75876,-0.64033 -0.73245,0.15198 -1.26306,-0.50253 -1.18723,-1.46446 0.0754,-0.95658 -0.22696,-1.51424 -0.6719,-1.23925 -1.08183,0.6686 -6.04035,-6.79772 -9.93746,-14.96339 -1.73675,-3.63904 -4.29055,-10.99081 -5.6751,-16.33727 -4.36166,-16.84258 -2.33227,-33.35662 5.74838,-46.7771 7.53869,-12.5204 22.49622,-22.80339 37.89898,-26.05476 8.43146,-1.7798 25.69477,-1.36295 35.11716,0.84796 l 5.38284,1.26305 -9.5,0.57611 -9.5,0.57611 11.5,0.0819 c 9.15266,0.0652 12.57125,0.50577 16.74822,2.1586 7.54332,2.98488 17.04729,7.88232 22.25178,11.46645 14.1602,9.75156 28.93174,24.32425 27.31227,26.94461 -0.34171,0.55289 -0.14755,0.71247 0.43146,0.35462 1.59423,-0.98528 7.11134,8.33539 10.10853,17.07749 1.46405,4.27027 3.85085,9.78913 5.30401,12.26413 11.63819,19.822 39.44228,34.47103 67.84373,35.74456 12.13285,0.54404 19.52968,-0.59884 28.27647,-4.36899 3.45003,-1.48707 8.84671,-2.87961 12.10976,-3.12474 l 5.88623,-0.44221 -2.3329,3.27625 c -1.28309,1.80194 -1.82549,2.96266 -1.20533,2.57938 0.62017,-0.38328 1.39313,-0.26719 1.7177,0.25798 0.32458,0.52517 -0.20683,1.46347 -1.1809,2.08511 -1.5167,0.96795 -1.41202,1.04299 0.72897,0.52254 5.08093,-1.23512 9,-1.77617 9,-1.24251 0,2.07432 -1.56565,3.71263 -3.54797,3.71263 -3.38808,0 -3.98341,1.8067 -0.71898,2.18194 l 2.76695,0.31804 -4.19228,2.84469 c -2.30576,1.56458 -4.62982,2.57427 -5.16459,2.24377 -0.53477,-0.33051 -1.16074,-0.0356 -1.39105,0.65531 -0.31385,0.94155 -4.53107,1.25054 -16.83541,1.23352 -19.50942,-0.027 -26.09171,-1.23094 -49.5948,-9.07125 -20.3365,-6.78399 -28.49666,-8.10047 -40.17574,-6.48158 -10.4744,1.45191 -24.05053,5.85693 -33.80682,10.96924 l -7.22473,3.78577 5.49387,-6.58974 c 12.8777,-15.44641 18.08556,-33.64679 13.78003,-48.15823 -1.78297,-6.00932 -5.805,-14.509 -8.10044,-17.11849 -0.83667,-0.95113 -1.1532,-2.25971 -0.72568,-3 0.41706,-0.72215 0.39999,-0.98936 -0.0379,-0.59379 -0.43791,0.39558 -4.95032,-3.20442 -10.02757,-8 -27.39278,-25.87304 -59.46466,-31.98687 -86.99689,-16.5841 -22.6931,12.69554 -29.84164,44.60265 -16.69631,74.52309 1.1256,2.56202 1.96774,4.81202 1.87143,5 -0.0963,0.18799 -0.006,0.24746 0.20118,0.13216 0.20696,-0.1153 2.17836,2.5847 4.38089,6 2.20253,3.4153 7.85213,10.14713 12.55467,14.95963 4.70254,4.8125 8.35614,8.72871 8.11911,8.70268 -0.23703,-0.026 -3.35597,-2.27877 -6.93097,-5.0061 z m 24.73097,-122.63957 c -0.97297,-0.25354 -2.32297,-0.23687 -3,0.0371 -0.67703,0.27393 0.11903,0.48137 1.76903,0.46099 1.65,-0.0204 2.20394,-0.2445 1.23097,-0.49804 z m -4.48097,-2.96929 c -0.6875,-0.27741 -1.8125,-0.27741 -2.5,0 -0.6875,0.27741 -0.125,0.50439 1.25,0.50439 1.375,0 1.9375,-0.22698 1.25,-0.50439 z m 214.30229,106.74689 c -0.33881,-0.54821 0.56172,-1.76843 2.00119,-2.71161 2.21562,-1.45173 2.75116,-1.49811 3.49022,-0.30229 0.48016,0.77692 0.55426,1.70326 0.16466,2.05854 -1.43637,1.30985 -5.05883,1.92171 -5.65607,0.95536 z m -57.55229,-2.58735 c -21.34294,-4.31723 -43.02357,-17.54356 -51.42325,-31.37091 -5.03887,-8.29489 -6.90494,-16.14141 -5.49992,-23.12635 0.60848,-3.025 1.78378,-6.625 2.61179,-8 2.53793,-4.21452 10.23137,-10.76937 14.88693,-12.68374 2.95742,-1.2161 4.41819,-2.42347 4.4207,-3.65386 0.007,-3.24149 6.33062,-20.6624 7.50071,-20.6624 1.64825,0 6.66056,5.50914 5.79752,6.37219 -0.40343,0.40343 -0.0263,0.46213 0.83808,0.13044 1.56088,-0.59897 5.59866,4.042 5.06505,5.8217 -0.13594,0.45338 0.17778,0.5617 0.69715,0.24071 0.51938,-0.32099 2.26651,1.02043 3.88253,2.98094 2.62777,3.18794 3.66645,3.66475 9.83046,4.51273 3.79074,0.52149 10.73179,2.1125 15.42457,3.53558 l 8.53232,2.58741 8.41008,-4.1098 c 4.62555,-2.26039 10.07775,-4.37647 12.116,-4.7024 l 3.7059,-0.5926 0.72438,9.66181 c 0.39841,5.31399 0.47976,11.16918 0.18079,13.01154 -0.43477,2.67913 -0.0551,3.80866 1.89647,5.64206 9.48286,8.90869 14.10614,25.31285 9.92772,35.22519 -3.8522,9.13843 -15.53262,17.28834 -28.1098,19.61336 -7.66883,1.41766 -23.33292,1.20147 -31.41618,-0.4336 z m 26.1816,-3.77844 c -1.43395,-1.72781 -9.6059,-4.59026 -15.98227,-5.59823 -7.17429,-1.1341 -6.55929,0.19836 0.79241,1.71683 3.29546,0.68067 7.90796,2.08891 10.25,3.12944 5.11425,2.27217 6.35875,2.46161 4.93986,0.75196 z m 3.8184,-7.43874 c -5.01948,-1.6979 -24.00054,-3.00004 -23.99904,-1.64639 5.3e-4,0.47647 3.71303,0.97888 8.25,1.11646 4.53697,0.13757 9.59904,0.6614 11.24904,1.16404 1.65,0.50265 4.35,0.90809 6,0.90099 2.68743,-0.0116 2.53115,-0.17151 -1.5,-1.5351 z m -3,-4.16345 c 0,-1.36261 -3.85227,-2.08799 -11.16821,-2.10298 -11.04341,-0.0226 -11.27994,1.4336 -0.33179,2.04268 5.5,0.30599 10.3375,0.64349 10.75,0.75 0.4125,0.10652 0.75,-0.20385 0.75,-0.6897 z m -41.55,-0.99314 c -3.09718,-2.85757 -23.65286,-7.87877 -22.12347,-5.40416 0.34572,0.55938 2.91936,1.32094 5.71921,1.69235 2.79984,0.37141 7.19744,1.53119 9.77244,2.57728 5.03892,2.04705 8.20856,2.5893 6.63182,1.13453 z m -0.44473,-3.61714 c -2.69602,-3.24851 -20.07876,-11.50635 -24.22084,-11.50635 -1.8649,0 0.30532,1.80524 2.95612,2.45896 4.84147,1.19398 14.23922,5.76475 13.68764,6.65723 -0.29264,0.4735 0.0538,0.6415 0.76987,0.37335 0.71607,-0.26816 2.65194,0.40903 4.30194,1.50486 3.59374,2.38675 4.15669,2.50179 2.50527,0.51195 z m -0.081,-4.10136 c -1.33337,-1.42726 -3.67652,-3.24643 -5.20701,-4.04259 -1.5983,-0.83145 -2.4902,-1.92084 -2.09549,-2.5595 0.39146,-0.63339 0.23618,-0.83317 -0.36082,-0.4642 -0.57642,0.35625 -2.96614,-0.029 -5.3105,-0.85617 -6.67226,-2.35411 -5.65847,-1.13658 2.34878,2.82081 4.02534,1.98944 8.14948,4.53504 9.16475,5.65691 1.01528,1.12186 2.30465,2.03975 2.86528,2.03975 0.56063,0 -0.0716,-1.16776 -1.40499,-2.59501 z m 16.49479,-2.05475 c 0.74613,-1.94439 -0.88396,-3.82518 -4.1691,-4.8103 -1.80884,-0.54242 -2.25,-0.28212 -2.25,1.32757 0,1.10126 0.44575,3.17469 0.99055,4.60763 0.82251,2.16337 1.31148,2.43359 2.88235,1.59288 1.04049,-0.55685 2.18628,-1.77985 2.5462,-2.71778 z m 50.84447,1.39976 c 1.23004,-0.6875 2.39331,-1.33188 2.58505,-1.43195 0.98859,-0.51598 -7.67333,-11.86738 -11.64839,-15.26515 -8.96466,-7.66276 -20.74503,-11.63888 -28.62432,-9.66131 -3.67003,0.92112 -7.0678,5.06925 -9.13588,11.15343 -0.9985,2.93754 -2.06848,5.18461 -2.37774,4.99348 -0.85104,-0.52597 -0.67374,5.18338 0.18771,6.04483 0.4125,0.4125 0.75,-0.16231 0.75,-1.27735 0,-2.40095 6.76477,-13.00174 8.79376,-13.78033 0.7756,-0.29763 3.50179,1.1803 6.05821,3.28427 8.02927,6.60823 16.01465,10.56756 27.64803,13.70849 3.55138,0.95885 4.21752,1.36903 2.29922,1.41578 -8.97298,0.21865 -23.25177,-5.52695 -30.14164,-12.12861 -2.56163,-2.45451 -4.65754,-3.89144 -4.65754,-3.19318 0,0.69826 0.48068,1.56664 1.06817,1.92973 0.5875,0.3631 0.82869,1.28426 0.53599,2.04702 -0.2927,0.76277 -0.21088,1.30744 0.18183,1.21038 0.3927,-0.0971 2.62915,1.69283 4.96988,3.97753 2.98081,2.90946 6.12662,4.74671 10.5,6.13231 7.13495,2.26053 17.71017,2.6837 21.0077,0.84063 z m -56.12538,-17.44456 c 0.0585,-6.21267 -0.38212,-9.87137 -1.43184,-11.88981 -4.84493,-9.316 -19.12905,-14.29693 -32.7256,-11.41155 -6.68891,1.41949 -16.74238,7.11034 -13.71851,7.76548 0.96924,0.20999 1.5296,0.75824 1.24525,1.21833 -0.76679,1.24069 6.53232,6.68317 12.82944,9.56608 10.36854,4.74688 21.16973,4.0339 26.29061,-1.73542 1.85103,-2.08543 1.84724,-2.09634 -0.33144,-0.95354 -3.99112,2.09347 -13.36313,2.4335 -20.55503,0.74576 -5.95945,-1.39852 -16.74103,-5.94011 -16.74103,-7.05193 0,-0.22411 2.53804,0.48458 5.64009,1.57486 8.75798,3.07819 20.2102,4.4372 27.38809,3.2501 6.09869,-1.00862 6.11667,-1.00437 7.55929,1.78535 0.79534,1.53801 1.69257,4.94164 1.99385,7.56362 1.40872,12.25966 2.43907,12.08745 2.55687,-0.42733 z M 371.29686,627.7433 c -21.54152,-5.47518 -27.42131,-25.69756 -11.19755,-38.51182 5.70308,-4.50454 12.39343,-6.82796 19.92123,-6.9182 8.19028,-0.0982 13.29235,1.50927 17.20308,5.42 2.85412,2.85412 3.29692,3.97158 3.29692,8.32019 0,4.00239 -0.55048,5.67749 -2.70863,8.2423 -3.56855,4.24098 -9.6148,6.88622 -15.79137,6.90873 -12.16986,0.0444 -16.75953,-10.07599 -7.27039,-16.0314 4.04309,-2.53746 11.12699,-2.16954 13.29301,0.6904 1.86145,2.4578 1.83174,2.7389 -0.58197,5.50592 l -2.05935,2.36078 1.55396,-2.56624 c 2.33193,-3.85102 0.11324,-6.4405 -5.39453,-6.29608 -5.07999,0.1332 -9.04073,3.41015 -9.04073,7.47993 0,7.43239 14.22299,7.95769 20.61197,0.76127 4.52907,-5.10146 3.22141,-11.69551 -2.73081,-13.77046 -12.48638,-4.35278 -28.76006,3.20822 -30.54222,14.19037 -1.36807,8.43042 4.03701,15.28512 14.77525,18.73793 5.84751,1.88022 8.45099,2.1524 16.65825,1.74153 8.16514,-0.40876 10.8408,-0.99532 16.65852,-3.65195 3.81203,-1.74073 8.53703,-4.35587 10.5,-5.81142 l 3.56904,-2.64645 -3,3.23389 c -9.77721,10.53944 -32.37716,16.51138 -47.72368,12.61078 z m 52.33104,-12.33888 c 14.27429,-13.28163 23.7027,-27.99442 27.96117,-43.63271 1.80625,-6.63307 2.09009,-9.79737 1.70432,-19 -0.39694,-9.46889 -0.93514,-12.25215 -3.77873,-19.54151 -5.97984,-15.32895 -18.8126,-25.46175 -37.40996,-29.53907 -19.98293,-4.3811 -42.36003,2.09778 -62.27275,18.02992 -20.7055,16.56645 -28.93031,33.98382 -25.32163,53.62266 1.51592,8.24979 9.01244,22.40483 15.85149,29.93102 l 5.94702,6.54453 -10.14414,-5.08183 c -10.90839,-5.46468 -17.13277,-7.67559 -28.14415,-9.99686 -14.07715,-2.96755 -23.55602,-1.69192 -47.46114,6.38712 -20.33852,6.87367 -28.66971,8.41493 -46.03886,8.51717 -15.99102,0.0941 -22.7314,-1.37095 -26.94565,-5.8568 -2.08781,-2.22238 -2.11339,-2.40766 -0.39363,-2.85134 1.49399,-0.38544 1.41689,-0.49629 -0.41072,-0.59052 -1.7024,-0.0878 -2.25,-0.72444 -2.25,-2.616 0,-2.77571 2.52709,-3.35865 6.15139,-1.41898 1.11095,0.59456 2.26207,0.83885 2.55806,0.54286 0.29599,-0.29599 -1.20505,-1.3316 -3.33564,-2.30136 -5.13686,-2.3381 -4.98477,-2.14013 -3.09541,-4.02949 1.54579,-1.5458 1.79834,-1.53356 3.69047,0.1788 2.14079,1.93739 2.89153,0.78857 0.83113,-1.27183 -2.38148,-2.38148 8.56479,-1.40268 14.3507,1.28322 23.58395,10.94799 61.13347,4.81394 84.31186,-13.77309 9.71677,-7.792 18.22043,-19.99339 20.00929,-28.71013 1.60666,-7.8289 11.76599,-22.44697 22.27601,-32.05253 30.6585,-28.02015 73.34569,-38.47566 101.75214,-24.9225 13.22975,6.31212 24.57083,18.88611 29.59645,32.81391 3.12578,8.66267 3.3733,25.86188 0.52761,36.66112 -2.19485,8.32932 -8.12826,21.45901 -12.73174,28.1733 -6.4925,9.4695 -19.31036,21.3893 -30.89232,28.72793 -3.83466,2.42974 -3.37522,1.80475 3.10736,-4.22701 z M 217.89507,593.79715 c -12.67834,-2.8781 -22.87468,-9.8129 -26.94206,-18.324 -2.37061,-4.96056 -2.9849,-13.19822 -1.405,-18.84107 1.30726,-4.66908 6.95737,-14.07656 10.93724,-18.21061 1.63452,-1.69783 2.05205,-2.98836 1.57796,-4.87727 -0.78012,-3.10825 0.39798,-20.59993 1.50846,-22.39673 1.03521,-1.67501 6.70617,-0.0416 16.67725,4.80345 l 7.22837,3.51237 9.5319,-2.7042 c 5.24254,-1.4873 11.99154,-3.03797 14.99776,-3.44592 5.2843,-0.7171 5.78135,-1.06605 14.96273,-10.50469 5.22328,-5.36962 10.05718,-9.57617 10.74201,-9.3479 1.49377,0.49793 5.23582,9.84996 6.87867,17.19102 1.11733,4.99273 1.46909,5.42627 6.34167,7.81601 7.47295,3.66507 11.12696,7.11987 14.22265,13.44723 10.78217,22.03797 -12.78109,50.70097 -49.63464,60.37693 -10.68567,2.80554 -28.71924,3.52707 -37.62497,1.50538 z m 11.31037,-5.70461 c 1.5483,-0.62571 5.0651,-1.74985 7.8151,-2.49808 4.90404,-1.33432 4.92208,-1.35319 0.93983,-0.98296 -2.2331,0.2076 -6.05809,1.29382 -8.5,2.41382 -4.74928,2.17829 -4.93574,2.95886 -0.25493,1.06722 z m 6.73177,-6.85133 c 3.25416,-0.006 5.65226,-0.27542 5.32909,-0.59858 -0.95052,-0.95052 -12.98121,-0.52299 -16.24576,0.57732 -2.81867,0.95002 -2.75822,0.98155 1,0.5217 2.2,-0.26919 6.6625,-0.49439 9.91667,-0.50044 z m 5.35416,-4.57351 c -0.30937,-0.30938 -3.58125,-0.5625 -7.27083,-0.5625 -3.68958,0 -6.96146,0.25312 -7.27083,0.5625 -0.30938,0.30938 2.9625,0.5625 7.27083,0.5625 4.30833,0 7.58021,-0.25312 7.27083,-0.5625 z m 35.72917,-3.16434 c 4.4,-1.25533 6.2,-2.03328 4,-1.72878 -5.43527,0.75229 -13.32758,3.36763 -14.14275,4.68659 -0.4396,0.7113 -0.18846,0.77979 0.73824,0.20133 0.77248,-0.48219 5.00451,-1.9038 9.40451,-3.15914 z m 0.57933,-6.30215 c 4.63137,-2.23707 7.29567,-3.77731 5.92067,-3.42277 -4.20144,1.08333 -12.38245,5.05152 -14.54713,7.05607 -1.12592,1.04263 -1.54022,1.56683 -0.92067,1.16489 0.61956,-0.40194 4.91576,-2.56113 9.54713,-4.79819 z m -3.01813,-3.01546 c 2.99134,-1.69191 4.3138,-2.75832 2.9388,-2.36979 -3.31588,0.93696 -9.16634,4.67587 -10.99745,7.02823 -1.41334,1.81569 -1.39187,1.82135 0.57588,0.15189 1.12418,-0.95377 4.49142,-3.11842 7.48277,-4.81033 z m -56.99713,3.43278 c 6.53083,-1.93945 11.63967,-5.44864 15.25534,-10.47869 3.89795,-5.42276 3.29889,-5.73429 -1.86813,-0.9715 -5.84017,5.38329 -14.81415,9.60502 -23.54868,11.07829 -3.79643,0.64035 -6.9026,1.34861 -6.9026,1.57392 0,1.08618 12.26913,0.22193 17.06407,-1.20202 z m 36.74929,-2.14652 c 0.33209,-3.43563 -0.5961,-3.96363 -3.8791,-2.20663 -2.21614,1.18605 -2.485,3.01408 -0.70507,4.79401 2.09471,2.09471 4.24913,0.87872 4.58417,-2.58738 z m -43.49619,-1.93392 c 8.39229,-3.01537 17.21809,-8.12289 21.11992,-12.22217 1.6154,-1.69715 3.48128,-3.08572 4.14641,-3.08572 1.67972,0 6.73954,5.95145 8.33544,9.80429 0.72803,1.75764 1.71254,3.19571 2.18779,3.19571 0.8666,0 -1.86229,-7.69284 -4.62197,-13.02947 -2.34802,-4.54057 -5.23953,-5.97053 -12.07291,-5.97053 -5.03091,0 -7.42009,0.63883 -13.19614,3.52848 -7.20149,3.60275 -15.64889,11.54819 -19.58619,18.42234 l -1.87049,3.26569 4.37049,-0.7296 c 2.40376,-0.40127 7.43821,-1.83183 11.18765,-3.17902 z m 47.6681,-20.42956 c 1.11591,-2.40033 1.52682,-2.5501 4.86678,-1.77386 8.95788,2.08189 24.26315,-0.0265 35.37879,-4.87373 l 4.26492,-1.8598 -2.61842,-1.71566 c -12.41146,-8.13229 -31.88237,-7.12084 -41.14033,2.13712 -4.29916,4.29916 -5.98093,10.96446 -4.97257,19.7076 l 0.57666,5 1.21267,-7 c 0.66697,-3.85 1.76115,-8.17975 2.4315,-9.62167 z m 30.55914,2.09913 c 9.00395,-4.57017 12.10687,-8.14639 3.56196,-4.10529 -8.44408,3.99342 -18.42951,5.65318 -25.23275,4.19414 -2.84101,-0.60928 -5.34352,-0.92974 -5.56113,-0.71213 -0.21762,0.21762 1.53555,1.38067 3.89592,2.58456 6.1343,3.12875 14.73134,2.40621 23.336,-1.96128 z"
       id="path3438-8"
       inkscape:connector-curvature="0"
       clip-path="url(#clipPath3450-4)" />
  </g>
</svg>
